<?xml version="1.0" encoding="UTF-8" standalone="no"?>
<!-- Created with Inkscape (http://www.inkscape.org/) -->

<svg
   width="114.30933mm"
   height="66.347588mm"
   viewBox="0 0 114.30933 66.347588"
   version="1.1"
   id="svg5"
   xml:space="preserve"
   xmlns:xlink="http://www.w3.org/1999/xlink"
   xmlns="http://www.w3.org/2000/svg"
   xmlns:svg="http://www.w3.org/2000/svg"><defs
     id="defs2"><linearGradient
       id="linearGradient2538"><stop
         style="stop-color:#39419b;stop-opacity:1;"
         offset="0"
         id="stop2534" /><stop
         style="stop-color:#dd51d5;stop-opacity:1;"
         offset="1"
         id="stop2536" /></linearGradient><linearGradient
       xlink:href="#linearGradient2538"
       id="linearGradient5550"
       gradientUnits="userSpaceOnUse"
       x1="64.277107"
       y1="110.96732"
       x2="138.93138"
       y2="110.96732"
       gradientTransform="translate(-3.1586542,5.4995926)" /></defs><g
     id="layer1"
     transform="translate(-42.519414,-95.451024)"><path
       id="path5548"
       style="font-variation-settings:normal;opacity:1;vector-effect:none;fill:url(#linearGradient5550);fill-opacity:1;stroke:#000000;stroke-width:0.0206375;stroke-linecap:butt;stroke-linejoin:miter;stroke-miterlimit:4;stroke-dasharray:none;stroke-dashoffset:0;stroke-opacity:1;-inkscape-stroke:none;stop-color:#000000;stop-opacity:1"
       d="m 73.174345,95.461357 c -3.470912,-0.007 -7.050859,1.772005 -8.243941,4.990913 -0.970216,2.61778 -0.554488,5.72244 -0.554488,8.46666 v 15.34584 c 4.754271,-0.51673 3.175,-8.24707 3.175,-11.64167 h 3.96875 c 0,3.27553 -0.584326,7.12127 1.185457,10.05417 2.84532,4.71459 10.874969,5.10733 14.285433,0.78961 3.532967,-4.47303 1.727026,-13.92091 1.727026,-19.31045 0,-2.12141 0.338924,-4.572792 -0.264583,-6.61458 -4.423292,1.545958 -2.910417,8.09734 -2.910417,11.90625 -1.034776,0 -3.011093,0.37373 -3.80907,-0.42426 -0.928156,-0.92842 -0.424263,-3.65298 -0.424263,-4.86741 0,-3.19271 -0.772859,-5.798231 -3.704167,-7.54579 -1.298024,-0.773829 -2.853051,-1.146013 -4.430737,-1.149283 z m 49.741665,0 c -3.4709,-0.007 -7.05086,1.772005 -8.24394,4.990913 -0.97023,2.61778 -0.55449,5.72244 -0.55449,8.46666 v 15.34584 c 4.75429,-0.51673 3.175,-8.24707 3.175,-11.64167 h 3.96875 c 0,3.27553 -0.58434,7.12127 1.18546,10.05417 2.84532,4.71459 10.87497,5.10733 14.28543,0.78961 3.53324,-4.47303 1.72703,-13.92091 1.72703,-19.31045 0,-2.12141 0.33893,-4.572792 -0.26458,-6.61458 -4.42328,1.545958 -2.91042,8.09734 -2.91042,11.90625 -1.03479,0 -3.0111,0.37373 -3.80907,-0.42426 -0.92816,-0.92842 -0.42426,-3.65298 -0.42426,-4.86741 0,-3.19271 -0.77286,-5.798231 -3.70417,-7.54579 -1.29803,-0.773829 -2.85305,-1.146013 -4.43074,-1.149283 z m -23.615094,0.228409 c -10.23245,5.097184 -7.14375,21.417804 -7.14375,30.691664 5.02336,-0.78448 3.175,-9.99094 3.175,-13.75833 2.414051,0.002 4.446611,0.52229 5.577434,2.91042 1.18691,2.50639 -0.0397,4.98899 3.4184,5.82083 l -0.27905,-6.35 -1.83762,-3.70417 c 1.36127,0.77391 3.82523,0.48931 4.86689,1.33015 0.64082,0.51726 0.25089,1.6922 0.17363,2.37402 -0.26088,2.30055 -1.09373,4.83368 -2.92385,6.35 -1.36709,1.53723 -1.67216,2.80936 -1.05833,4.7625 3.01094,-0.78289 5.2103,-4.38865 6.23424,-7.14375 1.14194,-3.07338 0.90951,-6.30847 0.90951,-9.525 V 95.689766 c -4.28068,0.47678 -2.91042,6.973904 -2.91042,10.054164 0,1.03055 0.37902,3.04903 -0.83251,3.54036 -1.68619,0.68394 -3.93771,-1.14852 -4.69997,-2.48254 -1.39276,-2.43706 0.16909,-5.683 -3.727938,-6.0849 0,3.91741 0.296077,6.40771 2.381248,9.78958 l -5.291664,-1.05833 c 0,-3.05115 0.399005,-6.6503 2.910416,-8.73125 1.663963,-1.683797 2.203188,-2.842956 1.058334,-5.027084 z m -26.31674,2.853573 c 1.824249,0.0083 3.635402,0.731156 4.583182,2.183851 1.512615,2.31878 0.831474,6.07986 0.831474,8.72091 h -3.704166 v -6.08542 c -3.640656,0.0881 -3.175,3.32108 -3.175,6.08542 h -3.96875 c 0,-2.42224 -0.651604,-5.97588 0.416512,-8.20208 0.814122,-1.69742 2.708223,-2.601683 4.651912,-2.694413 0.121481,-0.0058 0.243219,-0.0088 0.364836,-0.0083 z m 49.741664,0 c 1.82425,0.0083 3.6354,0.731156 4.58319,2.183851 1.51261,2.31878 0.83147,6.07986 0.83147,8.72091 h -3.70417 v -6.08542 c -3.64065,0.0881 -3.175,3.32108 -3.175,6.08542 h -3.96875 c 0,-2.42224 -0.65159,-5.97588 0.41651,-8.20208 0.81412,-1.69742 2.70824,-2.601683 4.65192,-2.694413 0.12148,-0.0058 0.24322,-0.0088 0.36483,-0.0083 z m 1.71049,14.078731 h 3.70417 v 5.1e-4 6.08542 c 3.50413,-0.19183 2.91042,-3.46208 2.91042,-6.08542 h 4.23333 c 0,2.40611 0.67789,6.04814 -0.55294,8.20157 -1.85844,3.25225 -7.99312,3.44881 -9.76581,-0.004 -1.15615,-2.25144 -0.52925,-5.72945 -0.52917,-8.19795 z m -49.741664,5.1e-4 h 3.704166 v 5.2e-4 6.08542 c 3.504125,-0.19183 2.910417,-3.46208 2.910417,-6.08542 h 4.233333 c 0,2.40611 0.677896,6.04814 -0.552938,8.20157 -1.858422,3.25224 -7.99311,3.44829 -9.765812,-0.004 -1.156227,-2.25159 -0.529166,-5.72939 -0.529166,-8.19795 z m 24.651208,18.23662 c -0.955412,0.0116 -1.912874,0.10725 -2.848922,0.28267 -7.347432,1.37662 -8.202083,8.03548 -8.202083,14.16399 0,2.75034 -0.502717,6.07616 0.275952,8.73125 1.797578,6.12825 8.114544,8.57298 14.011549,7.50962 7.73955,-1.3954 8.73125,-8.12136 8.73125,-14.65337 0,-2.91887 0.41761,-6.19417 -0.55552,-8.99583 -1.67679,-4.82766 -6.27671,-6.97599 -11.002949,-7.03833 -0.136334,-0.002 -0.27279,-0.002 -0.409277,0 z m -42.497664,1.92391 c -1.928361,-0.003 -3.888265,0.23099 -5.320606,0.23099 -3.125251,0 -8.255006,-1.17845 -8.995833,2.91042 h 3.439583 l -0.264583,8.20208 h -3.175 c 0.784477,5.02311 9.993077,3.175 13.758333,3.175 1.025259,0 2.462587,-0.24137 3.380156,0.31161 2.837647,1.71 0.895785,8.63657 -1.264523,10.08569 -1.454668,0.97605 -3.363961,0.7152 -5.02605,0.7152 H 42.531771 c 0.713047,4.56512 6.906958,3.175 10.31875,3.175 1.566578,0 3.221831,0.15137 4.7625,-0.17725 5.926104,-1.26444 6.085416,-6.52756 6.085416,-11.46441 0,-2.87838 0.86094,-7.07391 -2.910416,-7.67292 v 2.11667 c -2.641588,-0.3339 -5.275543,-0.26459 -7.9375,-0.26459 -1.037171,0 -2.501504,0.25306 -3.379122,-0.42426 -1.490135,-1.15068 -1.406975,-6.47614 0.260966,-7.46621 1.73698,-1.03107 6.966541,-0.61362 8.938989,-0.25167 2.462998,0.45191 2.245786,3.88817 5.027083,4.70256 0,-1.63486 0.242256,-3.48245 -0.392224,-5.02708 -0.931809,-2.26887 -3.43715,-2.82255 -6.072497,-2.8727 -0.128108,-0.002 -0.256949,-0.004 -0.385506,-0.004 z m 95.22623,0.0925 c -1.11402,0.007 -2.24939,0.11576 -3.19412,0.11576 -4.09018,0 -8.80935,-0.80881 -11.59619,2.92075 -2.19682,2.93977 -1.63298,6.85878 -1.63298,10.30841 0,1.36762 -0.20765,2.96212 0.41651,4.2292 0.56409,1.14591 1.58692,1.57445 2.75849,1.85622 v -2.38125 c 3.0681,0.907 8.47105,-1.1797 11.07374,0.72502 1.34117,0.9816 1.46348,6.52147 -0.0217,7.42952 -1.76662,1.08001 -7.16716,0.59115 -9.19996,0.27285 -2.62173,-0.41063 -1.81478,-4.12738 -5.0276,-4.45864 0,1.74758 -0.11047,3.6841 0.71159,5.29012 1.88276,3.67929 8.32368,2.3828 11.72383,2.3828 3.00514,0 8.49842,1.10039 8.73125,-3.175 h -3.175 c 0.59717,-2.50797 0.46884,-5.67693 0,-8.20209 h 3.175 c -0.29104,-2.82124 -2.39448,-2.91041 -4.7625,-2.91041 h -8.46667 c -1.23876,0 -2.84202,0.244 -3.90828,-0.53175 -2.54978,-1.85578 -0.70052,-8.65323 1.52807,-10.05314 1.59225,-1.00038 3.49571,-0.7922 5.29063,-0.7922 h 10.31875 c -0.25301,-2.44773 -2.16561,-2.97305 -4.26744,-3.02255 -0.15763,-0.004 -0.31628,-0.005 -0.47542,-0.004 z m -85.016518,0.0713 c 0.44344,4.30052 5.873487,3.175 8.995834,3.175 v 22.48959 c -3.879846,-0.0825 -6.928161,-4.17545 -4.286044,-7.64863 1.105959,-1.45335 3.385372,-1.96475 3.692281,-3.99304 0.65907,-4.35529 -6.556084,-7.5999 -9.989571,-7.67292 0.74004,3.8002 4.640279,4.47016 6.879167,7.40834 -5.519704,1.63936 -6.113971,9.6676 -2.105815,13.14183 2.714088,2.35267 5.543832,1.4862 8.720398,1.93942 v -25.66459 c 3.037667,0 8.758504,1.15832 8.995834,-3.175 z m 56.321108,0.19947 c -0.15105,3.8e-4 -0.30303,0.002 -0.45578,0.005 -0.81467,0.0138 -1.65319,0.0543 -2.51665,0.0615 v 25.4 c -3.01968,0 -8.52752,-1.02868 -8.99583,3.175 h 21.16667 c -0.99535,-4.13991 -5.66423,-3.175 -8.99584,-3.175 v -22.48959 c 3.65864,0.16748 6.70364,4.01406 4.32584,7.40679 -1.1385,1.62454 -3.47454,2.11214 -3.8685,4.23488 -0.80248,4.3209 6.47793,7.60281 9.86141,7.67292 -0.18203,-3.92005 -4.94506,-4.19234 -6.61458,-7.40834 5.14746,-1.64358 5.89469,-9.1364 2.35696,-12.67571 -1.78998,-1.79051 -3.72103,-2.16587 -5.81308,-2.204 v -5.1e-4 c -0.14943,-0.002 -0.29956,-0.003 -0.45062,-0.003 z m -23.769089,0.755 v 5.1e-4 c 3.586629,-0.0161 7.242009,1.56855 8.319909,5.31854 0.70988,2.47041 0.20877,5.64438 0.20877,8.20209 0,4.6122 -0.15692,10.32309 -6.08542,11.0634 -1.27817,0.15954 -2.683139,0.10022 -3.968748,0.0377 -6.977817,-0.33972 -6.879166,-7.54858 -6.879166,-12.68915 0,-5.25222 0.389229,-10.97622 6.879166,-11.82977 0.50185,-0.066 1.013109,-0.10105 1.525489,-0.10335 z" /></g></svg>
